<svg width="24" height="24" viewBox="0 0 24 24" fill="none" xmlns="http://www.w3.org/2000/svg">
<g clip-path="url(#clip0_82_5)">
<path d="M6.17296 13.0036L6.34297 13.3752C7.07036 14.88 8.21624 16.1431 9.6428 17.0133L9.90768 17.1685C10.0308 17.2377 10.0308 17.4149 9.90768 17.4842C9.81836 17.5344 9.73005 17.5862 9.6428 17.6394C8.21624 18.5095 7.07036 19.7727 6.34297 21.2775L6.17296 21.649C6.10635 21.7989 5.89365 21.7989 5.82704 21.649L5.65703 21.2775C4.92964 19.7727 3.78376 18.5095 2.3572 17.6394C2.26995 17.5862 2.18164 17.5344 2.09232 17.4842C1.96923 17.4149 1.96923 17.2377 2.09232 17.1685L2.3572 17.0133C3.78376 16.1431 4.92964 14.88 5.65703 13.3752L5.82704 13.0036C5.89365 12.8538 6.10635 12.8538 6.17296 13.0036ZM15.0779 2.72991C15.1747 2.94774 15.2716 3.16544 15.3754 3.38009C16.6483 6.01348 18.6536 8.22403 21.1501 9.74673C21.3028 9.83987 21.4573 9.93043 21.6137 10.0184C21.8291 10.1395 21.8291 10.4497 21.6137 10.5708C21.4573 10.6588 21.3028 10.7493 21.1501 10.8425C18.6536 12.3651 16.6483 14.5757 15.3754 17.2091C15.2716 17.4237 15.1747 17.6414 15.0779 17.8593C14.9613 18.1215 14.5891 18.1215 14.4725 17.8593C14.3757 17.6414 14.2788 17.4237 14.175 17.2091C12.9021 14.5757 10.8968 12.3651 8.40031 10.8425C8.24761 10.7493 8.09308 10.6588 7.93676 10.5708C7.72136 10.4497 7.72136 10.1395 7.93676 10.0184C8.09308 9.93043 8.24761 9.83987 8.40031 9.74673C10.8968 8.22403 12.9021 6.01348 14.175 3.38009C14.2786 3.16578 14.3757 2.94781 14.4725 2.72991C14.5891 2.46764 14.9613 2.46764 15.0779 2.72991Z" fill="#FD5E53"/>
</g>
<defs>
<clipPath id="clip0_82_5">
<rect width="24" height="24" fill="white"/>
</clipPath>
</defs>
</svg>
